<?xml version="1.0" standalone="no"?>
<!DOCTYPE svg PUBLIC "-//W3C//DTD SVG 20010904//EN"
 "http://www.w3.org/TR/2001/REC-SVG-20010904/DTD/svg10.dtd">
<svg version="1.0" xmlns="http://www.w3.org/2000/svg"
 width="981.000000pt" height="981.000000pt" viewBox="0 0 981.000000 981.000000"
 preserveAspectRatio="xMidYMid meet">

<g transform="translate(0.000000,981.000000) scale(0.100000,-0.100000)"
fill="#000000" stroke="none">
<path d="M269 9796 c-102 -27 -190 -103 -238 -205 l-26 -56 0 -4625 0 -4625
32 -66 c39 -79 102 -140 181 -177 l57 -27 4625 0 4625 0 66 32 c79 39 140 102
177 181 l27 57 0 4625 0 4625 -27 57 c-37 79 -98 142 -177 181 l-66 32 -4605
2 c-3628 1 -4615 -1 -4651 -11z m2196 -1443 c22 -12 54 -36 72 -55 64 -66 63
-57 63 -600 0 -553 2 -537 -75 -611 -69 -67 -68 -67 -653 -67 -373 0 -536 3
-564 12 -51 15 -126 82 -149 133 -17 37 -19 76 -19 524 0 346 3 495 12 524 18
60 83 125 148 148 52 18 86 19 590 16 527 -2 536 -2 575 -24z m4593 -1974
c554 -60 1045 -316 1281 -669 159 -237 244 -477 285 -795 32 -249 36 -430 36
-1823 0 -1548 5 -1440 -63 -1510 -18 -19 -50 -43 -72 -55 -40 -22 -45 -22
-595 -22 -552 0 -555 0 -596 22 -48 25 -101 83 -120 129 -12 28 -14 207 -14
1031 0 1689 -19 1922 -178 2198 -19 33 -76 101 -126 150 -75 75 -107 99 -186
138 -125 62 -224 87 -380 94 -412 18 -807 -179 -1019 -507 -123 -191 -170
-367 -212 -800 -7 -72 -14 -519 -18 -1195 l-6 -1080 -23 -48 c-13 -26 -40 -60
-60 -77 -74 -61 -75 -61 -668 -58 -504 3 -541 4 -574 22 -49 26 -88 64 -113
111 l-22 40 -3 2189 c-1 1486 1 2201 8 2227 15 56 68 119 125 148 l49 26 474
3 c525 3 542 1 615 -59 76 -63 81 -84 87 -350 5 -215 7 -239 24 -258 37 -41
59 -29 204 112 76 72 172 160 214 195 327 266 729 431 1158 475 82 9 398 6
488 -4z m-4593 -136 c52 -28 100 -78 119 -125 14 -33 16 -272 16 -2233 0
-1961 -2 -2200 -16 -2233 -19 -47 -67 -97 -119 -125 -40 -22 -45 -22 -595 -22
-552 0 -555 0 -596 22 -48 25 -101 83 -120 129 -19 46 -21 4383 -2 4447 18 60
83 125 148 148 52 18 86 19 590 16 527 -2 536 -2 575 -24z"/>
</g>
</svg>
